<svg width="30" height="24" viewBox="0 0 25 24" fill="none" xmlns="http://www.w3.org/2000/svg">
<path d="M12.6601 7.09333C14.1623 7.09333 15.1757 7.74222 15.7534 8.28444L18.0112 6.08C16.6245 4.79111 14.8201 4 12.6601 4C9.53121 4 6.82898 5.79556 5.51343 8.40889L8.10009 10.4178C8.74898 8.48889 10.5445 7.09333 12.6601 7.09333V7.09333Z" fill="#EA4335"/>
<path d="M20.3399 12.1778C20.3399 11.52 20.2866 11.04 20.171 10.5422H12.6599V13.5111H17.0688C16.9799 14.2489 16.4999 15.36 15.4332 16.1067L17.9577 18.0622C19.4688 16.6667 20.3399 14.6133 20.3399 12.1778V12.1778Z" fill="#4285F4"/>
<path d="M8.1088 13.5822C7.93991 13.0844 7.84213 12.5511 7.84213 12C7.84213 11.4489 7.93991 10.9155 8.09991 10.4178L5.51325 8.40887C4.97102 9.49332 4.65991 10.7111 4.65991 12C4.65991 13.2889 4.97102 14.5067 5.51325 15.5911L8.1088 13.5822V13.5822Z" fill="#FBBC05"/>
<path d="M12.6602 20C14.8202 20 16.6336 19.2889 17.958 18.0622L15.4336 16.1067C14.758 16.5778 13.8513 16.9067 12.6602 16.9067C10.5447 16.9067 8.74913 15.5111 8.10913 13.5822L5.52246 15.5911C6.83802 18.2044 9.53135 20 12.6602 20V20Z" fill="#34A853"/>
</svg>
